#define file_ico_width 16
#define file_ico_height 16
static unsigned char file_ico_bits[] = {
   0xfc, 0x03, 0x04, 0x06, 0x04, 0x0e, 0x04, 0x1e, 0x04, 0x3e, 0x04, 0x20,
   0x04, 0x20, 0x04, 0x20, 0x04, 0x20, 0x04, 0x20, 0x04, 0x20, 0x04, 0x20,
   0x04, 0x20, 0x04, 0x20, 0x04, 0x20, 0xfc, 0x3f };
