#define folder_ico_width 16
#define folder_ico_height 16
static unsigned char folder_ico_bits[] = {
   0x00, 0x00, 0x3e, 0x00, 0x7f, 0x00, 0xff, 0x7f, 0x01, 0x80, 0x01, 0x80,
   0x01, 0x80, 0x01, 0x80, 0x01, 0x80, 0x01, 0x80, 0x01, 0x80, 0x01, 0x80,
   0x01, 0x80, 0x01, 0x80, 0xff, 0xff, 0x00, 0x00 };
