#define folder_ico_width 16
#define folder_ico_height 16
static unsigned char folder_ico_bits[] = {
   0x00, 0x00, 0x00, 0x00, 0x1f, 0x00, 0x3f, 0x00, 0xff, 0x3f, 0x03, 0x00,
   0xfb, 0xff, 0xff, 0xff, 0xfd, 0x7f, 0xfd, 0x7f, 0xff, 0x7f, 0xff, 0x3f,
   0xff, 0x3f, 0xff, 0x3f, 0x00, 0x00, 0x00, 0x00 };
