#define osmium_width 16
#define osmium_height 16
static unsigned char osmium_bits[] = {
   0x00, 0x00, 0x04, 0x00, 0x04, 0x00, 0x00, 0x00, 0x20, 0x00, 0xd8, 0x00,
   0x8c, 0x01, 0x04, 0x19, 0x04, 0x0f, 0x06, 0x19, 0x0c, 0x31, 0xc8, 0x20,
   0x70, 0x1c, 0x00, 0x00, 0x00, 0x00, 0x00, 0x00 };
